<svg width="60" height="60" viewBox="0 0 60 60" fill="none" xmlns="http://www.w3.org/2000/svg">
<path d="M31.2499 5.03026C30.8335 5.00984 30.4167 4.99983 29.9999 5.00026C16.1924 5.00026 5 16.1927 5 30.0001C5 43.8076 16.1924 55 29.9999 55C43.8073 55 54.9998 43.8076 54.9998 30.0001C54.9998 27.8426 54.7248 25.7477 54.2123 23.7502" stroke="white" stroke-width="4" stroke-linecap="round" stroke-linejoin="round"/>
<path d="M19.9999 37.5001C21.1643 39.0526 22.6741 40.3126 24.4097 41.1804C26.1454 42.0483 28.0593 42.5001 29.9999 42.5001C31.9404 42.5001 33.8543 42.0483 35.59 41.1804C37.3257 40.3126 38.8355 39.0526 39.9998 37.5001M24.9999 23.7502H21.7674C20.6349 23.7502 19.5499 24.2002 18.7499 25.0002M34.9999 23.7502H38.2323C39.3648 23.7502 40.4498 24.2002 41.2498 25.0002M39.7198 5.82778C42.0673 4.45779 44.1148 5.01028 45.3448 5.89028C45.8498 6.25028 46.1023 6.43028 46.2498 6.43028C46.3998 6.43028 46.6498 6.25028 47.1548 5.89028C48.3848 5.01028 50.4323 4.45779 52.7798 5.82778C55.8598 7.62777 56.5548 13.5627 49.4548 18.5702C48.0998 19.5227 47.4223 20.0002 46.2498 20.0002C45.0773 20.0002 44.3998 19.5252 43.0473 18.5702C35.9449 13.5627 36.6399 7.62777 39.7223 5.82778" stroke="white" stroke-width="4" stroke-linecap="round" stroke-linejoin="round"/>
</svg>
