<svg width="60" height="60" viewBox="0 0 60 60" fill="none" xmlns="http://www.w3.org/2000/svg">
<path d="M30 12.5C30.0029 11.5001 29.8059 10.5097 29.4205 9.587C29.0351 8.66434 28.469 7.82807 27.7557 7.12737C27.0423 6.42667 26.1961 5.87569 25.2666 5.50683C24.3372 5.13798 23.3435 4.9587 22.3437 4.97953C21.344 5.00037 20.3586 5.22091 19.4453 5.62817C18.5321 6.03543 17.7095 6.6212 17.026 7.35101C16.3425 8.08083 15.8118 8.93997 15.4651 9.87788C15.1185 10.8158 14.9629 11.8136 15.0075 12.8125C13.538 13.1903 12.1738 13.8976 11.0181 14.8808C9.8624 15.8639 8.9456 17.0972 8.33711 18.4871C7.72862 19.8771 7.4444 21.3872 7.50597 22.9033C7.56755 24.4193 7.9733 25.9015 8.6925 27.2375C7.42795 28.2648 6.43357 29.5856 5.79585 31.0848C5.15813 32.5841 4.8964 34.2165 5.03341 35.84C5.17043 37.4635 5.70204 39.0289 6.58202 40.4001C7.46199 41.7712 8.66366 42.9066 10.0825 43.7075C9.90729 45.0631 10.0119 46.4402 10.3897 47.7538C10.7676 49.0674 11.4107 50.2896 12.2795 51.3449C13.1482 52.4002 14.224 53.2662 15.4406 53.8894C16.6571 54.5126 17.9884 54.8798 19.3524 54.9683C20.7164 55.0569 22.0841 54.8648 23.371 54.404C24.6578 53.9433 25.8366 53.2236 26.8344 52.2894C27.8322 51.3552 28.6279 50.2264 29.1724 48.9727C29.7169 47.7189 29.9985 46.3669 30 45V12.5Z" stroke="white" stroke-width="4" stroke-linecap="round" stroke-linejoin="round"/>
<path d="M30 12.5C29.9971 11.5001 30.1941 10.5097 30.5795 9.587C30.9649 8.66434 31.531 7.82807 32.2443 7.12737C32.9577 6.42667 33.804 5.87569 34.7334 5.50683C35.6628 5.13798 36.6566 4.9587 37.6563 4.97953C38.656 5.00037 39.6414 5.22091 40.5547 5.62817C41.4679 6.03543 42.2905 6.6212 42.974 7.35101C43.6575 8.08083 44.1882 8.93997 44.5349 9.87788C44.8815 10.8158 45.0371 11.8136 44.9925 12.8125C46.462 13.1903 47.8262 13.8976 48.9819 14.8808C50.1376 15.8639 51.0544 17.0972 51.6629 18.4871C52.2714 19.8771 52.5556 21.3872 52.494 22.9033C52.4325 24.4193 52.0267 25.9015 51.3075 27.2375C52.5721 28.2648 53.5664 29.5856 54.2042 31.0848C54.8419 32.5841 55.1036 34.2165 54.9666 35.84C54.8296 37.4635 54.298 39.0289 53.418 40.4001C52.538 41.7712 51.3363 42.9066 49.9175 43.7075C50.0927 45.0631 49.9882 46.4402 49.6103 47.7538C49.2324 49.0674 48.5893 50.2896 47.7205 51.3449C46.8518 52.4002 45.776 53.2662 44.5595 53.8894C43.3429 54.5126 42.0116 54.8798 40.6476 54.9683C39.2836 55.0569 37.9159 54.8648 36.629 54.404C35.3422 53.9433 34.1634 53.2236 33.1656 52.2894C32.1678 51.3552 31.3721 50.2264 30.8276 48.9727C30.2831 47.7189 30.0015 46.3669 30 45V12.5Z" stroke="white" stroke-width="4" stroke-linecap="round" stroke-linejoin="round"/>
<path d="M37.5 32.5C35.4011 31.7616 33.5683 30.4175 32.2333 28.6375C30.8983 26.8575 30.1211 24.7217 30 22.5C29.8789 24.7217 29.1017 26.8575 27.7667 28.6375C26.4317 30.4175 24.5989 31.7616 22.5 32.5M43.9975 16.25C44.6026 15.2015 44.9448 14.022 44.995 12.8125M15.0075 12.8125C15.0569 14.0218 15.3983 15.2012 16.0025 16.25M8.6925 27.24C9.14985 26.8675 9.63926 26.5362 10.155 26.25M49.845 26.25C50.3607 26.5362 50.8502 26.8675 51.3075 27.24M15 45C13.2771 45.0008 11.5832 44.5564 10.0825 43.71M49.9175 43.71C48.4168 44.5564 46.7229 45.0008 45 45" stroke="white" stroke-width="4" stroke-linecap="round" stroke-linejoin="round"/>
</svg>
