<svg width="60" height="60" viewBox="0 0 60 60" fill="none" xmlns="http://www.w3.org/2000/svg">
<path d="M13.8103 7.54336C13.3162 7.5402 12.8154 7.56446 12.3103 7.61766C5.84507 8.29735 1.08304 13.4609 1.68023 19.1431C1.69265 19.2614 1.70402 19.4 1.71937 19.5161C1.828 19.3227 1.91179 19.1476 2.03777 18.9547C4.9964 14.4311 11.7694 12.0231 17.1623 13.594C22.5553 15.1647 24.528 20.1459 21.5695 24.6701C21.2391 25.1763 20.8544 25.6214 20.4352 26.0719C23.5977 23.9074 25.4947 20.3916 25.1047 16.6807C24.5539 11.4421 19.64 7.58227 13.8102 7.5436L13.8103 7.54336ZM57.7561 11.4721C52.751 22.0185 45.8065 31.7748 38.1823 38.5057C32.978 43.1006 24.8913 46.7618 18.951 43.1598C15.3455 40.9731 13.9924 34.8614 17.1029 29.5403C10.8852 32.2002 6.12457 41.3282 9.57457 48.4981C14.9242 59.6153 28.9189 59.4709 43.1101 53.4255C49.6035 50.6596 53.5857 48.6539 57.7562 45.7603V41.8854C50.4994 47.017 44.1514 50.4799 34.6758 53.1612C43.8261 48.922 49.9436 44.8842 57.7561 38.5741V32.2043C49.8166 40.6934 40.6546 45.8325 31.519 50.3512C40.9233 44.7503 49.7832 37.3985 57.7561 28.5411V23.3586C52.7304 30.0782 46.3162 35.409 40.0819 40.9192C46.5059 33.8461 52.7025 26.5909 57.7561 18.4212V11.4721Z" fill="white"/>
</svg>
