<svg width="60" height="60" viewBox="0 0 60 60" fill="none" xmlns="http://www.w3.org/2000/svg">
<path fill-rule="evenodd" clip-rule="evenodd" d="M30 6.875C29.4255 6.875 28.8566 6.98816 28.3258 7.20803C27.795 7.42789 27.3127 7.75015 26.9064 8.15641C26.5002 8.56266 26.1779 9.04496 25.958 9.57576C25.7382 10.1066 25.625 10.6755 25.625 11.25C25.625 11.8245 25.7382 12.3934 25.958 12.9242C26.1779 13.455 26.5002 13.9373 26.9064 14.3436C27.3127 14.7498 27.795 15.0721 28.3258 15.292C28.8566 15.5118 29.4255 15.625 30 15.625C31.1603 15.625 32.2731 15.1641 33.0936 14.3436C33.9141 13.5231 34.375 12.4103 34.375 11.25C34.375 10.0897 33.9141 8.97688 33.0936 8.15641C32.2731 7.33594 31.1603 6.875 30 6.875ZM21.875 11.25C21.875 9.09512 22.731 7.02849 24.2548 5.50476C25.7785 3.98102 27.8451 3.125 30 3.125C32.1549 3.125 34.2215 3.98102 35.7453 5.50476C37.269 7.02849 38.125 9.09512 38.125 11.25C38.125 13.4049 37.269 15.4715 35.7453 16.9952C34.2215 18.519 32.1549 19.375 30 19.375C27.8451 19.375 25.7785 18.519 24.2548 16.9952C22.731 15.4715 21.875 13.4049 21.875 11.25ZM32.1725 24.555C30.7341 24.3159 29.266 24.3159 27.8275 24.555C21.56 25.6125 16.8775 31.115 16.8775 37.55C16.8775 38.96 16.085 40.2625 14.8175 40.9025L8.34501 44.175C7.90392 44.3787 7.40096 44.4033 6.94213 44.2435C6.48329 44.0836 6.10441 43.752 5.88531 43.3183C5.6662 42.8846 5.624 42.3829 5.76758 41.9187C5.91116 41.4545 6.22932 41.0642 6.65501 40.83L13.1225 37.56L13.125 37.5525C13.125 29.2875 19.13 22.22 27.205 20.86C29.0556 20.5515 30.9444 20.5515 32.795 20.86C40.87 22.22 46.875 29.2875 46.875 37.5525V37.56L53.345 40.83C53.5736 40.9356 53.7786 41.0861 53.9477 41.2726C54.1169 41.4591 54.2467 41.6777 54.3295 41.9155C54.4123 42.1533 54.4464 42.4053 54.4297 42.6565C54.413 42.9077 54.3459 43.153 54.2324 43.3777C54.1188 43.6025 53.9612 43.802 53.7689 43.9645C53.5765 44.127 53.3535 44.2491 53.1129 44.3235C52.8724 44.3979 52.6193 44.4231 52.3689 44.3976C52.1184 44.3721 51.8756 44.2964 51.655 44.175L45.1825 40.905C44.5627 40.5915 44.0422 40.1121 43.6789 39.5202C43.3156 38.9282 43.1239 38.247 43.125 37.5525C43.125 31.1175 38.4425 25.615 32.1725 24.5575M24.875 38.5C25.2728 38.7984 25.5358 39.2426 25.6062 39.7348C25.6765 40.2271 25.5484 40.7272 25.25 41.125L22.635 44.6125L22.4575 44.845C21.4916 46.0668 20.1395 46.9245 18.6225 47.2775L18.6025 47.2825L14.89 48.21C14.0282 48.4245 13.2631 48.9214 12.7166 49.6214C12.1701 50.3215 11.8739 51.1844 11.875 52.0725C11.875 52.6525 12.3475 53.125 12.9275 53.125H16.8175C18.36 53.125 18.98 53.1225 19.575 53.05C21.0208 52.8807 22.4163 52.416 23.675 51.685C24.19 51.385 24.6875 51.015 25.92 50.09L26.375 49.75L31.375 46C31.7728 45.7016 32.2729 45.5735 32.7652 45.6438C33.2575 45.7142 33.7016 45.9772 34 46.375C34.2984 46.7728 34.4265 47.2729 34.3562 47.7652C34.2858 48.2574 34.0228 48.7016 33.625 49L31.365 50.695L34.5075 51.875C36.075 52.4625 36.7075 52.695 37.35 52.8475C37.695 52.9275 38.045 52.9908 38.4 53.0375C39.0525 53.1225 39.725 53.125 41.4 53.125H47.0725C47.2108 53.1253 47.3478 53.0983 47.4757 53.0456C47.6035 52.9928 47.7197 52.9153 47.8175 52.8175C47.9153 52.7197 47.9928 52.6035 48.0456 52.4757C48.0983 52.3478 48.1253 52.2108 48.125 52.0725C48.125 50.2475 46.8825 48.6525 45.11 48.21L41.3775 47.2775L41.0975 47.2025C39.5967 46.7866 38.2816 45.8734 37.3675 44.6125L37.355 44.5975L34.75 41.125C34.6023 40.928 34.4948 40.7039 34.4337 40.4653C34.3726 40.2268 34.359 39.9786 34.3939 39.7348C34.4287 39.4911 34.5112 39.2566 34.6366 39.0447C34.7621 38.8328 34.928 38.6477 35.125 38.5C35.322 38.3523 35.5462 38.2448 35.7847 38.1837C36.0232 38.1226 36.2714 38.109 36.5152 38.1438C36.7589 38.1787 36.9934 38.2612 37.2053 38.3866C37.4172 38.5121 37.6023 38.678 37.75 38.875L40.355 42.3475L40.485 42.52C40.941 43.098 41.5865 43.4964 42.3075 43.645L46.02 44.57C47.693 44.9874 49.1782 45.9525 50.2392 47.3116C51.3003 48.6707 51.8761 50.3458 51.875 52.07C51.875 54.725 49.725 56.875 47.0725 56.875H41.2725C39.765 56.875 38.8375 56.875 37.915 56.755C37.4378 56.692 36.9639 56.6061 36.495 56.4975C35.59 56.285 34.72 55.96 33.3125 55.4325L27.805 53.3675C26.8525 54.08 26.225 54.5425 25.555 54.9275C23.8536 55.9171 21.9672 56.5468 20.0125 56.7775C19.175 56.8775 18.3225 56.875 16.9375 56.875H12.93C12.2995 56.875 11.6751 56.7508 11.0926 56.5094C10.51 56.268 9.98077 55.9142 9.53502 55.4682C9.08926 55.0222 8.73575 54.4928 8.49467 53.9101C8.2536 53.3275 8.12969 52.7031 8.13001 52.0725C8.12881 50.3486 8.70428 48.6738 9.76482 47.3147C10.8254 45.9557 12.31 44.9904 13.9825 44.5725L17.695 43.645L17.905 43.59C18.614 43.3938 19.231 42.9538 19.6475 42.3475L22.25 38.875C22.3978 38.678 22.5828 38.5121 22.7947 38.3866C23.0066 38.2612 23.2411 38.1787 23.4848 38.1438C23.7286 38.109 23.9768 38.1226 24.2154 38.1837C24.4539 38.2448 24.678 38.3523 24.875 38.5Z" fill="white"/>
</svg>
