<svg width="60" height="60" viewBox="0 0 60 60" fill="none" xmlns="http://www.w3.org/2000/svg">
<path d="M30 52.5C29.25 52.5 28.5317 52.365 27.845 52.095C27.1583 51.825 26.5433 51.4183 26 50.875L9.25 34.0625C7.79167 32.6042 6.71917 30.9375 6.0325 29.0625C5.34583 27.1875 5.00167 25.2292 5 23.1875C5 18.8958 6.39583 15.2083 9.1875 12.125C11.9792 9.04167 15.4583 7.5 19.625 7.5C21.625 7.5 23.5108 7.89583 25.2825 8.6875C27.0542 9.47917 28.6267 10.5833 30 12C31.3333 10.5833 32.8858 9.47917 34.6575 8.6875C36.4292 7.89583 38.3142 7.5 40.3125 7.5C44.4792 7.5 47.9692 9.04167 50.7825 12.125C53.5958 15.2083 55.0017 18.875 55 23.125C55 25.1667 54.6458 27.125 53.9375 29C53.2292 30.875 52.1667 32.5417 50.75 34L33.9375 50.875C33.3958 51.4167 32.7917 51.8233 32.125 52.095C31.4583 52.3667 30.75 52.5017 30 52.5ZM32.5 20C32.9167 20 33.3125 20.1042 33.6875 20.3125C34.0625 20.5208 34.3542 20.7917 34.5625 21.125L38.8125 27.5H49.1875C49.4792 26.7917 49.6983 26.0733 49.845 25.345C49.9917 24.6167 50.0642 23.8767 50.0625 23.125C49.9792 20.25 49.0208 17.7808 47.1875 15.7175C45.3542 13.6542 43.0625 12.6233 40.3125 12.625C39.0208 12.625 37.7817 12.875 36.595 13.375C35.4083 13.875 34.3767 14.6042 33.5 15.5625L31.8125 17.375C31.6042 17.625 31.3333 17.8233 31 17.97C30.6667 18.1167 30.3333 18.1892 30 18.1875C29.6667 18.1858 29.3333 18.1133 29 17.97C28.6667 17.8267 28.375 17.6283 28.125 17.375L26.4375 15.5625C25.5625 14.6042 24.5417 13.8542 23.375 13.3125C22.2083 12.7708 20.9583 12.5 19.625 12.5C16.875 12.5 14.5833 13.5525 12.75 15.6575C10.9167 17.7625 10 20.2517 10 23.125C10 23.875 10.0625 24.615 10.1875 25.345C10.3125 26.075 10.5208 26.7933 10.8125 27.5H22.5C22.9167 27.5 23.3125 27.6042 23.6875 27.8125C24.0625 28.0208 24.3542 28.2917 24.5625 28.625L26.75 31.875L30.125 21.75C30.2917 21.25 30.5933 20.8333 31.03 20.5C31.4667 20.1667 31.9567 20 32.5 20ZM33.25 28.125L29.875 38.25C29.7083 38.75 29.3958 39.1667 28.9375 39.5C28.4792 39.8333 27.9792 40 27.4375 40C27.0208 40 26.625 39.8958 26.25 39.6875C25.875 39.4792 25.5833 39.2083 25.375 38.875L21.125 32.5H14.75L29.5625 47.3125C29.6458 47.3958 29.7192 47.4483 29.7825 47.47C29.8458 47.4917 29.9183 47.5017 30 47.5C30.0817 47.4983 30.155 47.4883 30.22 47.47C30.285 47.4517 30.3575 47.3992 30.4375 47.3125L45.1875 32.5H37.5C37.0833 32.5 36.6875 32.3958 36.3125 32.1875C35.9375 31.9792 35.625 31.7083 35.375 31.375L33.25 28.125Z" fill="white"/>
</svg>
