<svg width="80" height="66" viewBox="0 0 80 66" fill="none" xmlns="http://www.w3.org/2000/svg">
<path d="M21.25 36C23 36 24.4583 35.3642 25.625 34.0925C26.7917 32.8208 27.6042 31.3108 28.0625 29.5625L24.4375 28.6875C24.2292 29.6042 23.8642 30.4275 23.3425 31.1575C22.8208 31.8875 22.1233 32.2517 21.25 32.25C20.3767 32.2483 19.6792 31.8842 19.1575 31.1575C18.6358 30.4308 18.2708 29.6075 18.0625 28.6875L14.4375 29.5625C14.8958 31.3125 15.7083 32.8233 16.875 34.095C18.0417 35.3667 19.5 36.0017 21.25 36ZM30 49.75C31.625 49.75 33.1875 49.3858 34.6875 48.6575C36.1875 47.9292 37.5833 46.835 38.875 45.375L36.125 42.875C35.2083 43.875 34.2292 44.6358 33.1875 45.1575C32.1458 45.6792 31.0833 45.9383 30 45.935C28.9167 45.9317 27.8542 45.6717 26.8125 45.155C25.7708 44.6383 24.7917 43.8775 23.875 42.8725L21.125 45.3725C22.4583 46.8308 23.865 47.925 25.345 48.655C26.825 49.385 28.3767 49.75 30 49.75ZM38.75 36C40.5 36 41.9583 35.3642 43.125 34.0925C44.2917 32.8208 45.1042 31.3108 45.5625 29.5625L41.9375 28.6875C41.7292 29.6042 41.365 30.4275 40.845 31.1575C40.325 31.8875 39.6267 32.2517 38.75 32.25C37.8733 32.2483 37.1758 31.8842 36.6575 31.1575C36.1392 30.4308 35.7742 29.6075 35.5625 28.6875L31.9375 29.5625C32.3958 31.3125 33.2083 32.8233 34.375 34.095C35.5417 35.3667 37 36.0017 38.75 36ZM30 61C26.5417 61 23.2917 60.3433 20.25 59.03C17.2083 57.7167 14.5625 55.9358 12.3125 53.6875C10.0625 51.4392 8.28167 48.7933 6.97 45.75C5.65833 42.7067 5.00167 39.4567 5 36C4.99833 32.5433 5.655 29.2933 6.97 26.25C8.285 23.2067 10.0658 20.5608 12.3125 18.3125C14.5592 16.0642 17.205 14.2833 20.25 12.97C23.295 11.6567 26.545 11 30 11C33.455 11 36.705 11.6567 39.75 12.97C42.795 14.2833 45.4408 16.0642 47.6875 18.3125C49.9342 20.5608 51.7158 23.2067 53.0325 26.25C54.3492 29.2933 55.005 32.5433 55 36C54.995 39.4567 54.3383 42.7067 53.03 45.75C51.7217 48.7933 49.9408 51.4392 47.6875 53.6875C45.4342 55.9358 42.7883 57.7175 39.75 59.0325C36.7117 60.3475 33.4617 61.0033 30 61ZM30 56C35.5833 56 40.3125 54.0625 44.1875 50.1875C48.0625 46.3125 50 41.5833 50 36C50 30.4167 48.0625 25.6875 44.1875 21.8125C40.3125 17.9375 35.5833 16 30 16C24.4167 16 19.6875 17.9375 15.8125 21.8125C11.9375 25.6875 10 30.4167 10 36C10 41.5833 11.9375 46.3125 15.8125 50.1875C19.6875 54.0625 24.4167 56 30 56Z" fill="white"/>
<path d="M60.9442 15.8455C60.4728 17.5298 58.7263 18.5135 57.0459 18.0432C55.3632 17.5723 54.3821 15.8253 54.8535 14.141C55.3246 12.4577 57.071 11.4741 58.7526 11.9447C60.4341 12.4153 61.4155 14.1612 60.9442 15.8455ZM60.9442 15.8455L64.5942 2.80315C64.7499 2.2467 65.3065 1.90167 65.8782 2.00743L77.3984 4.12832C77.5525 4.15681 77.6991 4.21687 77.8288 4.30463C77.9585 4.39239 78.0684 4.50592 78.1514 4.63792C78.2344 4.76992 78.2887 4.91748 78.3108 5.07113C78.333 5.22477 78.3224 5.38111 78.2799 5.53009L74.685 18.3755M74.685 18.3755C74.2139 20.0588 72.4672 21.0435 70.7867 20.5732C69.1041 20.1023 68.1233 18.3543 68.5943 16.671C69.0654 14.9878 70.8122 14.0031 72.4937 14.4737C74.1753 14.9443 75.1564 16.6912 74.685 18.3755Z" stroke="white" stroke-width="3" stroke-linecap="round" stroke-linejoin="round"/>
</svg>
